<?xml version="1.0" encoding="utf-8"?>
<!-- Generator: Adobe Illustrator 23.1.1, SVG Export Plug-In . SVG Version: 6.00 Build 0)  -->
<svg version="1.1" id="Capa_1" xmlns="http://www.w3.org/2000/svg" xmlns:xlink="http://www.w3.org/1999/xlink" x="0px" y="0px"
	 viewBox="0 0 1096 505" style="enable-background:new 0 0 1096 505;" xml:space="preserve">
<style type="text/css">
	.st0{fill-rule:evenodd;clip-rule:evenodd;}
</style>
<g>
	<path class="st0" d="M1092.55,348.14c0.55,1.72-0.42,2.7-1.35,3.5c-2.54,2.19-5.08,4.41-7.83,6.31c-3.02,2.09-6.29,3.82-9.43,5.72
		c-4.27,2.58-8.75,3.78-13.76,2.54c-1.52-0.38-3.2-0.47-4.76-0.29c-7.61,0.9-15.32,1.16-22.65,3.8c-9.07,3.27-18.54,3.22-27.97,2.87
		c-4.01-0.15-7.89-1.44-11.18-3.91c-3.07-2.3-6.33-4.48-8.91-7.26c-5.96-6.43-12.99-11.43-20.49-15.68
		c-8.82-4.99-14.11-12.22-16.38-21.95c-0.98-4.2-2.16-8.37-4.26-12.19c-1.15-2.09-2.34-4.15-4.31-5.59
		c-1.09,0.68-0.58,1.5-0.36,2.11c1.82,5.12,1.83,10.35,1.02,15.64c-0.72,4.66-0.57,9.19,1.1,13.7c1.5,4.06,2.29,8.31,2.2,12.7
		c-0.06,3.35,1.09,6.26,3.51,8.64c0.68,0.67,1.3,1.42,1.96,2.11c3.3,3.4,5.57,7.38,6.88,11.93c0.4,1.38,0.92,2.72,1.34,4.1
		c1.6,5.27,5.13,8.8,10.06,10.93c2.97,1.28,5.67,2.94,8.19,4.93c0.43,0.34,0.66,0.93,1.45,2.06c-6.13-1.48-11.66-2.16-16.57-5.06
		c-3.28-1.93-5.79-4.52-7.22-8.07c-1.01-2.52-2.03-5.05-2.83-7.64c-1.26-4.06-3.27-7.63-6.33-10.59c-3.98-3.85-5.96-8.51-6.43-14.04
		c-0.31-3.64-1.1-7.29-2.16-10.8c-1.45-4.82-2.03-9.67-1.76-14.67c0.26-4.8-0.06-9.54-0.86-14.32c-0.65-3.9-0.43-7.96-0.34-11.95
		c0.06-2.75-0.14-5.39-0.9-8.05c-1.1-3.85-1.76-7.79-1.68-11.83c0.09-4.7-0.96-9.22-2.38-13.65c-1.19-3.71-3.17-6.98-6.3-9.45
		c-5.14-4.07-7.35-9.51-7.4-15.94c-0.02-2.72,0.05-5.44-0.02-8.16c-0.15-6.34-2.83-9.48-9.15-10.13c-2.99-0.31-6.07-0.06-9.07,0.24
		c-3.97,0.4-7.91,1.18-11.88,1.64c-7.54,0.88-15,0.37-22.39-1.38c-4.12-0.97-7.82-2.73-11.04-5.53c-1.81-1.57-3.76-2.98-5.66-4.45
		c-2.36-1.82-4.99-2.82-8.02-2.63c-1.28,0.08-2.56,0.01-3.84,0.12c-3.82,0.32-7.63,0.7-11.44,1.07c-0.09,0.01-0.16,0.23-0.25,0.38
		c-0.12,1.25,0.89,1.95,1.52,2.81c3.4,4.69,6.41,9.59,8.09,15.17c2.92,9.67,9.96,15.36,18.61,19.51c1.27,0.61,2.73,0.95,4.14,1.15
		c3.01,0.43,6.03,0.82,9.06,0.99c6.34,0.36,12.24,2.24,17.92,4.93c3.82,1.81,7,4.31,8.94,8.85c-1-0.18-1.67-0.11-2.09-0.4
		c-2.29-1.58-4.84-2.36-7.55-2.88c-2.82-0.54-5.63-1.23-8.37-2.09c-4.62-1.45-9.39-2.14-14.17-2.27
		c-6.25-0.17-12.03-1.51-17.15-5.22c-0.25-0.18-0.58-0.24-0.89-0.36c-0.82,0.51-0.31,1.12,0.03,1.52c1.44,1.71,2.85,3.46,4.45,5.01
		c3.93,3.8,7.52,7.88,10.21,12.65c3.12,5.53,7.57,9.3,13.62,11.44c4.67,1.65,9.09,3.94,13.02,7.06c5,3.96,8.54,9,11.03,14.82
		c0.04,0.09-0.09,0.26-0.28,0.72c-1.86-0.21-3.42-1.29-4.9-2.35c-1.42-1.02-2.72-2.23-3.96-3.47c-4.12-4.12-8.85-7.34-14.16-9.72
		c-1.9-0.85-3.83-1.62-5.68-2.57c-2.97-1.53-5.87-3.18-8.9-4.84c-0.76,0.58-0.09,1.25,0.21,1.88c2.02,4.32,5.51,7.4,8.96,10.51
		c0.78,0.7,1.97,1.16,1.71,2.81c-6.21-0.72-11.2-3.52-15.15-8.23c-2.61-3.1-4.23-6.77-5.61-10.54c-0.55-1.5-0.93-3.06-1.38-4.59
		c-1.47-5.12-3.55-9.89-7.22-13.92c-4.17-4.58-6.71-10.02-8.2-16.07c-1.11-4.49-2.7-8.86-4.18-13.25
		c-2.99-8.82-8.78-15.57-16.2-20.9c-4.44-3.2-9.55-5.23-15.04-5.9c-3.49-0.43-7.01-0.54-10.52-0.71c-5.43-0.27-10.86-0.51-16.29-0.7
		c-7.44-0.27-14.55-2.03-21.42-4.81c-2.65-1.07-5.3-2.16-7.89-3.21c-0.88,0.68-0.33,1.25-0.05,1.75c1.95,3.51,3.34,7.25,4.54,11.07
		c1.78,5.66,4.06,11.1,7.32,16.11c2.86,4.4,6.74,7.2,11.93,8.08c3.47,0.59,6.93,1.25,10.42,1.65c5.7,0.64,10.88,2.54,15.5,5.92
		c5.96,4.36,11.65,9.05,16.13,14.97c3.36,4.44,7.58,7.74,12.36,10.44c1.36,0.77,2.63,1.69,4.39,2.83c-0.89,0.31-1.29,0.6-1.61,0.53
		c-3.42-0.79-6.86-1.53-10.22-2.51c-4.1-1.2-7.42-3.54-10.07-6.98c-4.42-5.76-9.88-10.44-15.74-14.68
		c-3.47-2.51-7.23-3.98-11.58-4.03c-2.55-0.02-5.11-0.35-7.66-0.56c-5.37-0.43-10.36-1.91-14.73-5.18
		c-0.61-0.45-1.31-0.77-2.28-1.33c-0.27,4.81,0.71,9.07,2.68,12.84c3.1,5.94,6.68,11.64,10.25,17.32c2.16,3.44,5.19,6.01,9.1,7.31
		c0.03,1.18-0.87,1.02-1.35,0.93c-1.55-0.29-3.15-0.57-4.59-1.17c-3.77-1.59-6.84-4.19-9.24-7.45c-3.03-4.12-5.92-8.35-8.67-12.66
		c-3.73-5.86-4.46-12.56-5.14-19.28c-0.49-4.93-1.1-9.85-1.81-14.76c-0.29-2.05-0.91-4.05-1.47-6.05
		c-2.02-7.27-5.94-13.38-11.29-18.66c-3.53-3.48-7.14-6.91-10.33-10.68c-7.09-8.36-12.56-17.75-16.43-28.01
		c-2.65-7.03-5.23-14.13-5.99-21.67c-0.46-4.6-0.67-9.25-0.65-13.88c0.03-5.16-0.1-10.19-2.27-15.04c-0.96-2.15-1.16-4.64-1.9-6.9
		c-2-6.07-6.11-9.97-12.3-11.7c-2.46-0.69-4.89-1.51-7.31-2.33c-3.93-1.34-7.08-3.76-9.19-7.32c-1.62-2.74-3.27-5.54-4.33-8.52
		c-2.73-7.75-8.47-10.9-16.18-11.13c-7.78-0.23-15.23,1.64-22.54,4.11c-3.48,1.18-6.95,2.4-10.41,3.63
		c-4.56,1.62-9.2,2.69-14.08,2.53c-0.62-0.02-1.24,0.18-2.12,0.32c0.25,0.88,0.43,1.61,0.67,2.32c1.35,4.1,2.73,8.19,4.07,12.28
		c0.55,1.67,1.13,3.34,1.54,5.04c1.76,7.18,7.17,10.24,13.63,11.94c2.29,0.61,4.75,0.6,7.13,0.84c3.5,0.35,7.01,0.6,10.5,1
		c9.21,1.08,16.52,5.66,22.56,12.48c3.1,3.49,5.62,7.36,7.21,11.8c1.53,4.27,3.79,8.1,7.35,11.06c0.74,0.61,1.36,1.36,2.06,2.01
		c4,3.72,6.62,8.13,7.35,13.65c0.35,2.68,1.07,5.32,1.57,7.99c0.11,0.57,0.02,1.19,0.02,1.99c-2.66-2.29-3.93-4-5.07-6.89
		c-0.64-1.63-1.32-3.28-1.73-4.98c-0.86-3.58-2.93-6.35-5.53-8.81c-1.05-0.99-2.17-1.89-3.24-2.86c-2.99-2.71-5.36-5.89-7.46-9.33
		c-2-3.26-4.16-6.45-6.47-9.5c-4.34-5.7-10.09-9.25-17.16-10.59c-2.02-0.38-4.06-0.68-5.96-0.99c-0.9,1.09-0.14,1.68,0.29,2.24
		c2.38,3.1,3.83,6.63,4.9,10.34c1.28,4.46,2.65,8.89,3.77,13.39c1.24,5,3.77,9.11,7.7,12.4c0.48,0.4,0.88,0.91,1.29,1.39
		c0.08,0.1,0.04,0.31,0.08,0.8c-0.56,0-1.12,0.11-1.62-0.02c-6.95-1.84-11.88-6.05-14.65-12.69c-1.48-3.54-2.87-7.12-4.28-10.68
		c-0.71-1.78-1.34-3.6-2.09-5.37c-1.63-3.84-4.2-6.75-8.2-8.29c-2.24-0.86-4.43-1.83-6.65-2.76c-6.34-2.64-10.9-7.08-13.85-13.3
		c-1.52-3.2-2.74-6.47-3.59-9.9c-0.81-3.26-1.62-6.52-2.49-9.76c-1.21-4.54-3.82-8.04-7.88-10.45c-0.96-0.57-1.88-1.22-2.87-1.73
		c-5.28-2.75-9.96-6.35-14.71-9.89c-6.93-5.16-14.82-7.28-23.42-6.77c-2.23,0.13-4.48,0.28-6.68,0.66
		c-4.94,0.86-9.54,2.61-13.67,5.53c-1.3,0.92-2.68,1.75-4.05,2.57c-4.86,2.89-9.01,6.51-12.52,11.02
		c-4.81,6.18-9.84,12.2-15.01,18.09c-2.84,3.23-6.15,6.05-9.25,9.05c-0.88,0.86-1.75,1.73-2.92,2.88c2.57,1.16,4.65,2.52,6.92,3.03
		c6.14,1.38,12.1,1.05,17.06-3.51c2-1.84,3.87-3.82,5.79-5.75c8.77-8.77,19.51-12.53,31.73-12.25c5.48,0.13,10.23,2.23,14.13,6.22
		c2.33,2.39,3.43,5.32,4.45,8.38c0.91,2.72,1.92,5.41,3.08,8.03c1,2.27,2.74,3.77,5.18,4.66c4.55,1.65,7.73,5.01,10.19,9.08
		c0.83,1.37,1.52,2.82,2.25,4.24c2.03,3.94,4.71,7.23,8.95,8.96c0.37,0.15,0.63,0.54,0.91,0.79c-0.43,1.13-1.32,1.08-2.07,1.01
		c-3.64-0.33-6.91-1.59-9.22-4.5c-1.57-1.99-2.94-4.19-4.11-6.44c-1.19-2.31-2.54-4.49-4.46-6.18c-1.41-1.24-3.05-2.57-4.8-2.99
		c-6.04-1.47-8.88-5.87-10.97-11.09c-0.47-1.18-0.75-2.44-1.09-3.68c-1.95-7.23-7.53-9.77-13.06-10.03
		c-2.22-0.1-4.54-0.07-6.68,0.44c-7.19,1.73-14.05,4.33-20.17,8.63c-1.98,1.39-3.66,3.05-5.5,5.15c0.9,0.47,1.5,1,2.16,1.1
		c6.78,1.02,11.75,4.69,15.52,10.27c1.43,2.12,3.02,4.14,4.56,6.17c2.05,2.7,4.36,5.11,7.52,6.55c0.21,0.1,0.29,0.49,0.46,0.82
		c-2.73,1.01-4.99-0.09-7.11-1.57c-3.44-2.39-6.35-5.36-9.01-8.58c-1.02-1.23-1.95-2.54-3.01-3.73c-2.78-3.15-6.3-4.98-10.48-5.14
		c-2.7-0.11-5.42,0.17-8.11,0.45c-1.9,0.2-3.77,0.71-5.66,1.07c-4.88,0.92-9.53,0.19-14.03-1.86c-2.76-1.26-5.59-2.37-8.41-3.49
		c-3.12-1.24-6.27-1.03-9.4,0.01c-6.73,2.23-12.46,5.9-16.17,12.09c-3.37,5.62-6.62,11.31-9.67,17.11
		c-2.09,3.98-4.06,7.98-7.18,11.29c-0.65,0.69-1.18,1.52-1.66,2.34c-3.41,5.88-8.07,10.69-12.96,15.33
		c-4.17,3.96-8.29,7.99-12.28,12.13c-4.5,4.67-7.57,10.28-10.07,16.21c-1.13,2.69-1.69,5.47-1.74,8.4
		c-0.08,4.81,0.03,9.61,1.16,14.31c0.25,1.04,0.74,2.1,1.38,2.95c1.25,1.65,2.57,3.3,4.08,4.71c4.96,4.65,8.94,10,11.79,16.18
		c0.19,0.42,0.54,0.77,0.86,1.12c0.09,0.1,0.3,0.1,0.63,0.21c1.56-3.31,2.26-6.9,3.18-10.42c0.08-0.31,0.12-0.63,0.16-0.95
		c0.93-8.1,3.83-15.42,8.26-22.27c3.37-5.2,4.92-11.07,4.83-17.33c-0.05-3.36,0.08-6.72-0.03-10.08c-0.17-5.18,1.33-9.76,4.47-13.86
		c1.81-2.37,3.49-4.85,6.15-7.31c0.22,1.13,0.43,1.67,0.4,2.2c-0.15,3.06-0.81,6.01-1.98,8.85c-1.43,3.45-2.09,7.02-1.91,10.77
		c0.11,2.23-0.03,4.48,0,6.72c0.05,4.62-0.01,9.24-1.17,13.61c0.96,0.99,1.64,0.39,2.28,0.04c5.95-3.19,10.54-7.8,13.69-13.72
		c2.78-5.22,5.25-10.6,7.86-15.92c1.48-3.02,2.81-6.11,4.44-9.04c2.78-5.02,6.65-9.09,11.95-11.39c4.61-2,9.32-2.14,13.65,1.03
		c0.37,0.27,0.6,0.72,0.88,1.07c-0.3,1.69-1.85,1.71-2.92,2.16c-1.46,0.62-3.05,0.97-4.62,1.25c-4.16,0.75-7.47,2.89-9.9,6.24
		c-1.68,2.31-3.1,4.85-4.37,7.42c-2.62,5.3-5.06,10.7-7.58,16.05c-2.83,6.01-6.68,11.26-11.64,15.69c-2.17,1.94-4.52,3.53-7.13,4.8
		c-3.16,1.54-6.25,3.24-9.4,4.81c-1.78,0.89-3.08,2.16-4.09,3.89c-1.95,3.34-3.58,6.8-4.25,10.63c-1.59,9.04-4.19,17.73-8.72,25.78
		c-0.53,0.94-0.88,2.11-0.91,3.19c-0.19,7.74-2.39,15.15-3.66,22.71c-1.7,10.11-0.92,20.13,2.2,29.86
		c1.94,6.02,5.3,11.28,10.6,15.06c0.52,0.37,1.01,0.79,1.51,1.18c6.58,5.08,5.15,4.16,12.06,4.83c7.64,0.74,15.2,2.09,22.58,4.32
		c0.87,0.26,1.77,0.44,3.3,0.82c-0.89-1.71-1.4-2.83-2.02-3.89c-3.17-5.45-5.6-11.14-5.87-17.57c-0.12-2.87-2.01-4.65-4.13-6.13
		c-2.23-1.55-4.68-2.78-6.91-4.33c-1.96-1.36-3.88-2.82-5.58-4.48c-3.8-3.71-5.04-8.42-4.7-13.6c0.08-1.27,0.3-2.54,0.56-3.79
		c1.07-5.15,2.18-10.29,3.35-15.76c0.46,0.5,1.04,0.85,1.16,1.33c0.5,2.01,0.79,4.01,0.66,6.15c-0.25,4.15-0.1,8.32-0.19,12.47
		c-0.13,5.7,2.31,9.79,7.37,12.43c2.12,1.1,4.08,2.5,6.13,3.73c0.52,0.31,1.11,0.51,1.53,0.7c1.15-0.51,1-1.41,1.09-2.14
		c0.65-4.91,1.37-9.81,1.87-14.74c0.41-4.02-0.11-7.98-1.33-11.85c-1.9-6.06-3.4-12.26-6.1-17.96c0.75-0.94,1.28-0.31,1.71,0.03
		c4.12,3.25,7.3,7.15,8.44,12.43c0.17,0.78,0.3,1.59,0.59,2.32c3.03,7.7,2.92,15.63,1.76,23.63c-0.97,6.68-1.14,13.38-0.54,20.1
		c0.55,6.21,2.93,11.8,6.3,16.92c3.51,5.34,7.32,10.49,11.06,15.68c0.64,0.9,1.54,1.62,2.33,2.4c2.05,2.01,4.14,3.99,6.18,6.02
		c6.58,6.6,14.42,10.5,23.8,10.92c4.21,0.19,8.28-0.74,12.08-2.61c4.63-2.27,8.63-5.23,11.95-9.36c4.71-5.85,9.96-11.25,14.98-16.84
		c0.73-0.81,1.46-1.6,2.44-2.67c-0.92-0.32-1.49-0.67-2.06-0.69c-4.95-0.17-9.91-0.33-14.87-0.41c-4.14-0.07-7.77,1.13-11.01,3.91
		c-4.16,3.56-9.21,5.81-14.14,8.04c-5.24,2.38-10.75,1.68-15.68-1.23c-3.87-2.29-5.1-6.17-5.14-11.4c1.5,1.63,2.47,2.62,3.36,3.67
		c3.84,4.51,8.69,6.06,14.11,3.98c4.78-1.83,9.53-4.01,13.14-7.73c5.99-6.19,13.45-7.47,21.52-7.4c9.49,0.08,18.75,1.21,27.86,4.16
		c6.42,2.08,12.76,0.42,18.45-2.88c5.26-3.04,7.25-8.3,7.98-14.07c0.18-1.42-0.01-2.88,0.04-4.32c0.05-1.51-0.38-2.83-1.34-3.99
		c-3.7-4.48-5.6-9.63-5.79-15.44c-0.03-0.77-0.36-1.53-0.58-2.28c-0.03-0.11-0.22-0.18-0.52-0.4c-2.15,1.25-3.26,3.36-4.05,5.61
		c-0.84,2.41-1.56,4.88-2.1,7.37c-0.55,2.56-1.64,4.83-2.96,7.04c-1.6,2.66-3.98,4.1-7.06,4.34c-3.51,0.28-7.01,0.64-10.52,0.73
		c-2.69,0.07-5.33-0.48-8.11-1.57c1.1-2.28,2.88-3.22,4.78-3.97c2.85-1.13,5.8-1.96,8.89-1.62c3.87,0.42,5.99-1.58,7.22-4.9
		c0.5-1.34,0.9-2.73,1.25-4.12c2.1-8.44,6.04-15.7,12.71-21.53c5.54-4.84,4.93-13.71-0.88-18.12c-1.62-1.22-3.46-1.66-5.44-1.28
		c-2.35,0.45-4.74,0.83-7.03,1.52c-9.66,2.9-19.28,2.35-28.89-0.15c-3.01-0.78-6.03-0.86-9.04-0.4c-4.53,0.69-7.42,3.9-7.8,8.43
		c-0.09,1.11-0.09,2.24-0.07,3.36c0.17,7.62,4.39,12.64,11.84,14.09c1.4,0.27,2.84,0.4,4.55,0.64c2.76-1.44,4.29-3.93,4.5-7.17
		c0.29-4.43-3.34-6.77-7.36-4.79c-0.98,0.48-2.02,1.1-1.69,2.54c0.64,0.72,1.09-0.05,1.62-0.18c1.77-0.43,2.96,0.39,2.91,1.99
		c-0.05,1.94-1.24,3.56-2.89,3.93c-1.91,0.43-3.61-0.2-4.64-1.7c-1.4-2.03-2.04-6.48,0.48-8.91c0.58-0.55,1.11-1.15,1.68-1.72
		c3.56-3.54,8.55-3.87,12.6-0.9c2.26,1.66,3.89,3.83,4.96,6.36c1.26,2.97,2.93,5.63,4.9,8.2c3.28,4.28,3.39,9.36,0.47,13.86
		c-1.75,2.69-3.73,5.22-6.4,7.09c-1.86,1.3-3.4,2.82-4.74,4.67c-2.79,3.86-6.51,6.04-11.46,5.8c-2.71-0.13-5.44-0.05-8.16-0.07
		c-4.98-0.04-9.88,0.65-14.74,1.69c-2.99,0.64-5.75,1.64-8.23,3.62c-1.56,1.25-3.69,1.79-5.6,2.58c-2.4,0.99-4.72,0.52-6.94-0.6
		c-4.1-2.08-7.3-5.14-9.77-8.99c-0.95-1.48-1.82-3.02-2.82-4.46c-2-2.9-4-5.78-6.82-8c-0.8-0.62-1.29-1.64-2.17-2.8
		c4.22-0.56,7.47,0.17,9.76,3.33c1.78,2.46,3.48,4.98,4.99,7.61c1.8,3.14,4.23,5.54,7.23,7.53c2.63,1.74,5.1,1.49,7.65,0.02
		c0.14-0.08,0.29-0.15,0.4-0.26c5.33-5,12.2-5.97,18.96-7.24c0.62-0.12,1.24-0.27,1.85-0.44c0.12-0.03,0.19-0.22,0.29-0.34
		c-1.74-1.51-4.62-3.01-7.31-3.79c-0.77-0.22-1.55-0.38-2.33-0.56c-3.7-0.85-6.8-2.74-9.4-5.46c-0.88-0.93-1.74-1.88-2.61-2.81
		c-2.79-2.98-6.1-5.14-10.03-6.32c-1.38-0.41-2.78-0.77-4.14-1.21c-4.36-1.42-7.46-4.26-9.24-8.47c-0.75-1.76-1.28-3.62-1.92-5.42
		c-1.18-3.31-2.33-6.64-3.58-9.92c-1.63-4.26-4.14-7.96-7.68-10.85c-9.02-7.37-10.46-16.7-7.17-27.26c0.95-3.07,1.96-6.12,1.86-9.36
		c-0.07-2.23-0.4-4.45-0.53-6.69c-0.09-1.59-0.19-3.2,0.02-4.76c0.07-0.56,0.97-1.2,1.62-1.41c0.39-0.13,1.06,0.47,1.54,0.82
		c0.23,0.17,0.35,0.53,0.46,0.83c2.38,6.71,3.88,13.52,2.38,20.69c-0.52,2.5-0.99,5.02-1.29,7.56c-0.68,5.82,1.14,10.72,5.7,14.51
		c0.72,0.6,1.44,1.21,2.47,2.07c0.44-0.93,0.87-1.54,1.04-2.23c0.32-1.24,0.4-2.53,0.73-3.77c1.88-7.14,1.64-14.23-0.21-21.34
		c-1.75-6.73-1.14-13.32,1.62-19.71c1.35-3.12,3.21-5.92,5.48-8.41c4.11-4.5,8.58-8.61,13.95-11.62c1.25-0.7,2.46-1.49,3.69-2.24
		c3.78-2.3,6.69-5.42,8.91-9.22c2.1-3.59,4.27-7.13,6.25-10.79c1.04-1.93,1.71-4.06,2.64-6.32c1.91,3.39,1.2,6.56,0.05,9.53
		c-1.91,4.93-4.3,9.65-7.5,13.89c-2.76,3.65-6.49,6.17-10.41,8.35c-3.95,2.2-7.49,4.9-10.8,7.92c-4.24,3.87-7.27,8.48-8.33,14.23
		c-0.09,0.47-0.15,0.95-0.15,1.43c0,0.3,0.13,0.61,0.3,1.28c0.53-0.39,1.02-0.62,1.34-1c0.62-0.73,1.11-1.56,1.71-2.31
		c5.11-6.48,11.52-11.01,19.57-13.11c1.08-0.28,2.15-0.63,3.23-0.89c5.09-1.24,9.47-3.79,13.36-7.24
		c5.14-4.56,10.04-9.39,15.73-13.33c1.8-1.24,3.21-3.11,4.58-4.87c3.18-4.09,7.08-7.47,11.19-10.44c6.16-4.46,13.29-6.17,20.91-5.31
		c3.02,0.34,6.06,0.67,9.01,1.37c3.84,0.9,7.28,0.41,10.48-1.88c2.75-1.97,5.83-2.58,9.12-2.03c1.74,0.29,3.37,0.87,4.18,3.09
		c-1.01,0.09-1.75,0.21-2.5,0.2c-1.99-0.02-3.76,0.63-5.41,1.7c-1.75,1.13-3.52,2.22-5.25,3.37c-3.02,2.01-6.3,3.08-9.95,2.92
		c-3.68-0.16-7.35-0.25-11.03-0.46c-4.22-0.25-8.33,0.18-12.14,2.12c-1.69,0.86-3.28,1.98-4.76,3.17c-0.94,0.75-1.59,1.84-2.63,3.09
		c6.66,1.5,11.95,4.66,16.76,8.72c4.31,3.63,9.39,3.65,14.57,2.99c3.84-0.49,7.41-1.83,10.86-3.62c4.69-2.42,9.46-4.68,14.25-6.88
		c6.34-2.9,13.03-4.43,20.01-4.35c9.49,0.11,17.02,4.07,22.04,12.17c2.09,3.38,3.7,7.08,5.3,10.74c2.77,6.35,7.07,10.93,13.88,12.92
		c3.37,0.99,6.73,2.05,10.04,3.21c9.38,3.25,14.42,10.23,16.34,19.65c0.63,3.11,0.91,6.34,0.97,9.52
		c0.11,6.07,1.62,11.68,4.65,16.91c1.52,2.63,3.06,5.25,4.54,7.9c0.27,0.49,0.32,1.1,0.48,1.7c-0.58,0.06-0.95,0.22-1.13,0.1
		c-4.77-3.12-8.52-7.18-11.38-12.12c-2.04-3.52-3.45-7.21-3.88-11.25c-0.26-2.39-0.43-4.78-0.68-7.17
		c-0.51-4.76-2.41-8.93-5.56-12.51c-1.25-1.42-2.64-2.71-4.49-3.22c-0.31,0.43-0.63,0.68-0.62,0.9c0.37,8.48,0.17,16.96-0.83,25.39
		c-0.54,4.53,0.49,8.54,3.08,12.24c1.25,1.79,2.57,3.56,3.33,5.57c-0.89,0.81-1.38,0.2-1.79-0.19c-1.73-1.66-3.36-3.43-5.11-5.06
		c-2.95-2.75-4.61-6.15-4.95-10.11c-0.57-6.69-0.92-13.4-1.47-20.1c-0.21-2.54-0.59-5.08-1.18-7.55c-0.74-3.09-2.56-5.45-5.48-6.92
		c-1.68-0.85-3.24-1.93-4.83-2.48c-1.21,0.67-0.96,1.56-0.98,2.29c-0.18,6.88-0.49,13.76-0.4,20.63c0.05,3.65,0.64,7.32,1.33,10.92
		c0.73,3.8,2.32,7.31,4.82,10.34c3.37,4.06,6.6,8.25,10.16,12.13c2.53,2.75,4.54,5.71,6.2,9.04c2.41,4.87,5.1,9.6,7.73,14.36
		c2.74,4.97,6.8,8.86,10.73,12.85c1.91,1.94,3.79,3.9,5.58,5.94c3.58,4.08,5.63,8.91,6.5,14.21c0.52,3.15,0.74,6.35,1.12,9.53
		c0.21,1.74,0.44,3.49,0.71,5.22c0.59,3.75,2.07,7.04,4.98,9.59c0.36,0.31,0.67,0.69,0.97,1.06c0.09,0.11,0.08,0.3,0.12,0.48
		c-0.5,0.98-1.4,0.66-2,0.37c-4.77-2.29-8.75-5.35-9.93-10.9c-0.43-2.02-0.81-4.08-0.95-6.14c-0.45-6.64-2.88-12.4-7.39-17.3
		c-2.38-2.59-4.69-5.25-7.07-7.84c-3.34-3.63-6.72-7.22-10.39-11.15c-0.23,0.78-0.5,1.31-0.52,1.84c-0.08,2.61-0.9,5.02-1.88,7.4
		c-2.61,6.3-2.29,12.62,0.83,18.51c2.99,5.63,6.29,11.13,10.88,15.74c2.7,2.71,5.1,5.74,7.63,8.62c2.81,3.21,4.54,6.96,5.33,11.12
		c0.78,4.08,1.41,8.2,2.07,12.3c0.66,4.15,0.78,8.3-0.36,12.38c-0.56,1.98-0.36,3.82,0.47,5.6c1.14,2.46,2.22,4.99,3.67,7.26
		c6.63,10.4,8.31,21.65,6.05,33.61c-0.69,3.64-1.31,7.23-0.61,10.93c0.1,0.53-0.13,1.12-0.23,1.86c-3.42-2.73-5.08-5.41-5.26-8.91
		c-0.13-2.38-0.12-4.82,0.2-7.18c1.28-9.57-0.98-18.4-5.34-26.81c-0.71-1.38-1.62-2.66-2.43-3.96c-0.51,0.28-0.9,0.36-0.98,0.56
		c-3.83,10.03-6.99,20.26-8.44,30.94c-0.26,1.9-0.35,3.82-0.44,5.73c-0.16,3.43,0.57,6.67,2.22,9.7c0.51,0.93,0.94,1.9,1.86,3.78
		c-1.38-0.76-1.92-0.95-2.32-1.3c-4.3-3.78-6.38-8.73-7.23-14.24c-0.59-3.81-0.6-7.66,0.05-11.48c0.53-3.15,0.94-6.35,1.77-9.43
		c1.99-7.41,3.83-14.86,6.8-21.98c1.29-3.08,2.19-6.34,3.01-9.58c0.42-1.67,0.5-3.51,0.34-5.24c-0.43-4.62-0.94-9.23-1.66-13.81
		c-0.82-5.18-3.27-8.49-7.83-11.24c-1.37,2.83-2.64,5.72-4.14,8.48c-2.02,3.73-5.01,6.61-8.56,8.91c-2.15,1.39-4.29,2.8-6.41,4.22
		c-2.07,1.39-3.3,3.33-4.05,5.74c-2.06,6.58-1.79,13.28-1.1,19.98c0.4,3.97,1.14,7.91,1.75,11.86c0.71,4.64,0.61,9.23-0.75,13.78
		c-0.45,1.51-0.66,3.14-0.69,4.71c-0.08,3.08-0.71,6.01-1.7,8.91c-1.04,3.02-1.9,6.11-2.9,9.14c-0.82,2.46-1.04,4.98-1.17,7.55
		c-0.26,5.38,1.58,10.03,4.63,14.3c1.26,1.76,2.66,3.44,3.24,5.5c-0.43,0.28-0.6,0.46-0.68,0.43c-7.36-2.85-12.56-7.58-13.31-15.91
		c-0.24-2.69-0.09-5.43-0.03-8.14c0.03-1.42,0.25-2.84,0.38-4.25c-0.46-0.07-0.85-0.25-1.04-0.13c-3.38,2.22-7.03,3.73-10.93,4.77
		c-1.37,0.36-2.79,0.94-3.9,1.79c-4.07,3.09-8.32,6.03-11.96,9.59c-5.26,5.14-9.91,10.89-13.9,17.1
		c-4.09,6.35-8.91,12.11-13.9,17.73c-4.91,5.54-11.22,8.94-18.05,11.44c-3.56,1.31-7.25,1.01-10.91,0.37
		c-2.52-0.44-5-1.19-7.53-1.45c-3.65-0.37-7.34-0.7-10.99-0.51c-4.6,0.24-8.75,1.91-11.7,5.72c-1.66,2.14-3.25,4.34-4.79,6.56
		c-0.8,1.16-1.45,2.43-2.11,3.55c-1.18-0.02-1.11-0.77-1.11-1.34c0-8.44,7.09-19.82,19.95-19.96c5.3-0.06,10.54,0.18,15.71,1.46
		c1.54,0.38,3.15,0.55,4.74,0.71c3.27,0.31,6.29-0.4,9.2-2.03c5.09-2.86,9.59-6.38,13.18-10.98c4.91-6.31,9.74-12.69,14.67-18.98
		c3.16-4.03,6.45-7.95,9.67-11.93c0.59-0.73,1.12-1.51,1.61-2.17c-0.39-1.29-1.29-1-2.02-1c-8.24-0.01-15.74,2.71-22.73,6.76
		c-5.67,3.29-11.1,6.97-16.59,10.55c-6.06,3.95-12.26,7.58-19.53,8.82c-6.39,1.09-12.77,0.94-19.03-0.73
		c-1.97-0.53-3.89-1.49-5.61-2.6c-1.48-0.95-2.9-1.23-4.53-0.96c-10.59,1.79-20.35,5.53-28.72,12.42
		c-4.34,3.58-8.27,7.53-11.24,12.38c-1.42,2.32-3,4.54-4.52,6.79c-2.18,3.22-4.87,5.9-8.17,8c-2.92,1.86-6.04,2.91-9.53,2.65
		c-2.71-0.2-5.42-0.39-8.11-0.73c-5.24-0.67-10.47-1.37-15.78-1.04c-0.48,0.03-1,0.1-1.43-0.06c-0.55-0.21-1.27-0.52-1.47-0.97
		c-0.41-0.96,0.46-1.44,1.18-1.7c4.58-1.67,9.35-2.03,14.17-1.75c2.71,0.16,5.43,0.39,8.13,0.68c5.18,0.56,9.38-1.31,12.95-4.94
		c2.24-2.28,5.53-7.31,6.98-10.96c-1.34,0.15-2.55,0.33-3.77,0.41c-1.28,0.08-2.56,0.08-3.84,0.1c-10.05,0.15-18.79-3.38-26.44-9.67
		c-4.58-3.77-8.81-7.95-11.88-13.1c-1.31-2.2-3.11-3.69-5.45-4.41c-2.42-0.75-4.92-1.44-7.43-1.69c-7.1-0.71-14.02,0.51-20.83,2.47
		c-2.77,0.79-5.52,1.63-8.31,2.35c-10.68,2.75-20.95,1.91-30.56-3.81c-3.02-1.79-6.06-3.63-8.79-5.81
		c-4.88-3.91-10.26-6.29-16.46-7.24c-6.97-1.07-13.81-2.81-20-6.38c-2.48-1.43-4.81-3.14-7.13-4.82c-0.37-0.27-0.55-1.17-0.41-1.67
		c0.26-0.92,1.18-1.09,1.96-0.8c1.5,0.55,2.98,1.18,4.4,1.91c6.95,3.59,14.37,5.35,22.13,5.58c7.3,0.21,13.78,2.5,19.57,6.89
		c3.84,2.91,7.9,5.44,12.29,7.43c7.73,3.51,15.68,4.16,23.86,1.9c0.22-0.06,0.39-0.34,0.86-0.76c-0.87-0.34-1.56-0.67-2.28-0.88
		c-13.47-4.02-23.05-12.75-29.82-24.78c-5.11-9.08-7.4-19.04-8.44-29.3c-0.43-4.29-0.6-8.62-0.67-12.93
		c-0.03-2.31-0.84-4.06-2.68-5.3c-5.76-3.88-11.78-7.12-19-7.18c-0.64,0-1.28,0.02-1.91,0.06c-3.81,0.28-7.61,0.58-11.58,0.88
		c-1.83,1.07-3.78,2.5-5.95,3.4c-2.87,1.18-5.96,1.04-8.99,0.48c-1.73-0.32-3.42-0.89-5.15-1.14c-4.59-0.66-8.96-0.32-12.51,3.19
		c-0.34,0.34-0.71,0.65-1.11,0.92c-2,1.35-4.13,1.63-6.39,0.74c-2.44-0.96-3.67-2.8-4.13-5.35c1.6-0.79,2.14,0.69,3.1,0.98
		c1.31,0.4,2.51,0.43,3.58-0.56c0.47-0.44,0.91-0.91,1.41-1.31c6.13-4.89,12.86-7.03,20.55-4.23c2.19,0.8,4.38,0.82,6.62,0.6
		c0.62-0.06,1.24-0.31,1.8-0.59c0.39-0.19,0.68-0.59,1.19-1.05c-0.41-0.54-0.72-1.09-1.15-1.48c-2.16-1.96-3.95-4.21-5.18-6.85
		c-1.39-2.98-3.44-4.49-6.88-5.08c-6.25-1.07-7.73-1.89-11.51-7.53c1.03-0.92,1.81-0.03,2.45,0.5c1.98,1.63,4.17,2.23,6.69,1.88
		c6.16-0.85,10.53,1.59,13.21,7.22c1.11,2.35,2.94,4.08,5.03,5.68c3.47,2.65,7.23,3.11,11.33,2.32c2.04-0.39,4.08-0.72,6.13-1.06
		c5.97-0.98,11.39,0.71,16.61,3.41c1.23,0.64,2.21,1.93,3.83,1.65c0.1-0.16,0.24-0.3,0.24-0.43c0.1-7.86-1.8-15.22-6.08-21.82
		c-2.58-3.97-6.26-6.82-10.69-8.6c-11.5-4.61-23.36-7.73-35.76-8.55c-4.63-0.31-9.26-0.57-13.89-0.88
		c-8.46-0.56-16.25-3.35-23.69-7.22c-2.86-1.49-5.37-3.5-7.34-6.08c-2.51-3.3-5.7-4.36-9.72-3.39c-4.24,1.02-8.53,1.1-12.87,0.44
		c-4.11-0.63-7.63-2.31-10.53-5.26c-1.34-1.37-2.59-2.84-3.85-4.28c-8.92-10.25-15.25-22.05-20.66-34.41
		c-0.17-0.39-0.11-0.89-0.21-1.83c0.78,0.56,1.32,0.8,1.64,1.21c7.57,9.71,15.12,19.44,22.69,29.15c1.28,1.64,2.66,3.2,4.02,4.77
		c2.11,2.46,4.89,3.54,8.05,3.7c1.59,0.08,3.21,0.08,4.8-0.06c3.33-0.29,6.65-0.7,10.27-1.09c-0.26-1.07-0.43-2.13-0.77-3.12
		c-4.61-13.3-8.81-26.72-12.5-40.3c-1.74-6.39-6.18-10.74-11.65-13.99c-1.71-1.02-3.94-1.27-5.98-1.57c-3-0.44-6.04-0.65-9.07-0.87
		c-3.52-0.25-7.03-0.15-10.46,0.86c-4.36,1.29-8.53,0.69-12.56-1.35c-1.28-0.65-2.6-1.3-3.98-1.63c-4.02-0.98-7.96-0.77-11.56,1.53
		c-1.74,1.12-3.43,2.34-5.09,3.59c-1.28,0.96-2.56,1.93-3.7,3.05c-7.37,7.22-21.37,5.13-27.04-1.31c-3.06-3.47-6.45-6.67-9.71-9.96
		c-1.46-1.48-3.03-2.85-4.48-4.35c-4.22-4.35-9.05-7.58-15.13-8.71c-0.76-0.14-1.48-0.55-2.2-0.86c-0.13-0.05-0.2-0.23-0.4-0.48
		c0.32-0.26,0.62-0.73,0.95-0.75c2.24-0.12,4.48-0.15,6.71-0.19c3.65-0.07,6.9,1.08,9.87,3.18c4.72,3.34,9.02,7.14,12.99,11.35
		c1.97,2.1,3.94,4.21,6.07,6.15c4.58,4.18,10.83,4.34,15.7,0.45c2.74-2.19,5.39-4.5,8.25-6.9c-0.65-1.63-2.28-2.19-3.35-3.25
		c-1.13-1.12-2.3-2.29-3.67-3.04c-5.47-3-9.84-7.2-13.21-12.32c-2.79-4.24-6.57-6.88-11.2-8.55c-1.35-0.49-2.7-1.02-4.08-1.41
		c-5.87-1.67-11.57-3.74-16.64-7.25c-4-2.76-8.48-2.7-12.94-1.99c-4.42,0.7-8.62,2.13-12.7,4.15c-5.49,2.72-10.59,5.91-15.28,9.84
		c-1.34,1.12-2.9,1.98-4.37,2.96c-3.32,2.21-6.68,4.39-9.97,6.65c-3.59,2.47-7.49,4.32-11.57,5.73c-5.24,1.81-10.43,1.07-15.46-0.93
		c-2.83-1.13-5.47-2.66-7.76-4.7c-2.6-2.32-5.49-4.35-7.64-7.08c0.76-1.14,1.49-0.85,2.15-0.38c2.6,1.86,5.19,3.75,7.75,5.65
		c3.4,2.52,7.23,4.07,11.3,5.08c3.75,0.93,7.29,0.55,10.54-1.71c1.97-1.37,4.1-2.54,5.91-4.09c3.9-3.34,8.13-6.21,12.43-8.99
		c1.6-1.04,3.2-2.16,4.54-3.51c5.77-5.82,12.84-9.44,20.44-12.13c3.31-1.17,6.74-1.99,10.11-3c2.97-0.89,6-0.8,9.04-0.63
		c2.15,0.12,4.13,0.92,5.74,2.23c5.11,4.16,11.22,6.01,17.34,7.89c1.5,0.46,3,0.9,4.62,1.38c1.36-9.04-0.66-16.97-5.76-24.18
		c-1.17-1.66-2.86-2.51-4.6-3.34c-4.45-2.12-8.02-5.21-10.57-9.45c-0.15-0.25-0.16-0.58-0.24-0.88c0.61-0.73,1.15-0.2,1.6,0.16
		c3.48,2.85,7.23,5.29,11.39,7.03c2.63,1.1,4.49,3.03,5.92,5.4c1.48,2.47,2.92,4.96,4.33,7.47c1.43,2.55,2.27,5.29,2.45,8.21
		c0.11,1.91,0.14,3.84,0.16,5.75c0.04,3.66,0.94,6.86,3.86,9.43c1.53,1.34,2.7,3.16,3.8,4.9c3.67,5.84,8.63,10.24,14.72,13.41
		c1.13,0.59,2.29,1.15,3.38,1.82c3.33,2.08,6.83,3.25,10.85,3.16c4.06-0.09,7.93,1.19,11.41,3.23c2.86,1.68,5.66,1.95,8.71,0.84
		c3.21-1.18,6.55-1.42,9.93-1.26c5.6,0.27,11.14,0.97,16.54,2.58c1.19,0.36,2.4,0.66,4.35,1.2c-0.98-1.42-1.4-2.26-2.02-2.9
		c-2.73-2.76-5.91-4.89-9.43-6.5c-7.85-3.6-15.69-7.19-23.56-10.75c-4.1-1.85-8.04-3.92-11.25-7.18c-2.66-2.7-4.49-5.78-5.14-9.55
		c-0.49-2.83-1.01-5.67-1.64-8.47c-0.65-2.96-1.44-5.89-2.17-8.83c-0.14-0.57-0.24-1.16-0.55-2.64c2.96,2.7,4.35,5.31,5.29,8.18
		c1.15,3.49,2.15,7.03,3.27,10.54c1.28,4.03,3.96,6.88,7.67,8.81c0.85,0.44,1.71,0.88,2.6,1.23c8.88,3.54,17.77,7.06,26.68,10.59
		c0.73-1.13-0.2-1.56-0.67-2.03c-2.6-2.61-5.29-5.12-7.86-7.75c-3.71-3.79-5.76-8.4-6.43-13.64c-0.04-0.31-0.05-0.65,0-0.96
		c0.05-0.29,0.2-0.56,0.3-0.83c1.04-0.1,1.32,0.74,1.68,1.41c2.96,5.62,7.29,10.03,11.95,14.25c3.07,2.78,5.74,6,8.53,9.08
		c0.74,0.82,1.54,1.75,1.87,2.77c1.2,3.76,3.74,6.62,6.05,9.68c3.23,4.27,5,9.27,6.68,14.28c4.92,14.71,9.78,29.43,14.72,44.13
		c1.12,3.33,2.34,6.64,3.67,9.89c2.55,6.24,6.95,10.52,13.34,12.96c5.29,2.02,10.67,3.31,16.29,3.75c1.24,0.1,2.49,0.01,4.01,0.01
		c-0.24-0.92-0.33-1.53-0.55-2.1c-1.05-2.68-2.21-5.31-3.18-8.02c-1.38-3.85-3.44-7.18-6.72-9.72c-2.02-1.56-3.93-3.27-5.88-4.93
		c-0.97-0.83-1.93-1.68-2.85-2.57c-3.54-3.43-4.35-7.55-3.26-12.14c1.24-0.48,1.67,0.36,2.01,0.99c1.56,2.94,4,4.85,6.74,6.63
		c7.7,5.03,13.63,11.53,16.33,20.59c0.91,3.06,1.95,6.05,4.01,8.64c1.82,2.29,3.93,3.49,6.89,3.71c3.66,0.27,7.3,0.86,10.92,1.49
		c6.34,1.1,12.29,3.49,18.29,5.69c1.63,0.6,3.24,1.28,4.77,1.89c0.93-0.78,0.29-1.24-0.09-1.69c-2.63-3.07-5.9-5.37-9.22-7.62
		c-2.65-1.79-5.3-3.58-7.91-5.44c-5.55-3.96-9.16-9.37-11.14-15.79c-1.18-3.8-2.01-7.74-2.71-11.66c-1.39-7.81-1.92-8.64-9.18-12.1
		c-4.18-2-8.41-3.9-12.57-5.95c-6.72-3.32-12.1-8.4-17.06-13.82c-4.43-4.83-6.61-10.88-7.59-17.34c-0.17-1.1-0.27-2.29,1-2.89
		c0.99-0.47,2.05,0.26,2.78,1.98c0.69,1.62,1.28,3.28,1.85,4.94c1.88,5.48,5.29,9.71,9.92,13.2c6.69,5.05,13.82,9.19,21.64,12.23
		c2.82,1.09,5.54,2.49,8.19,3.96c4.13,2.28,6.84,5.71,7.73,10.43c0.62,3.3,1.23,6.6,1.81,9.9c0.68,3.84,2.18,7.34,4.18,10.65
		c0.29,0.48,0.73,0.87,1.08,1.27c0.39-0.31,0.6-0.41,0.6-0.5c-0.09-3.67-0.16-7.34-0.33-11c-0.17-3.67-0.76-7.35-0.62-11.01
		c0.31-8.33-2.91-15.22-7.88-21.58c-2.06-2.64-3.93-5.44-5.79-8.23c-1.62-2.43-2.35-5.17-2.76-8.33c0.68,0.15,1.24,0.09,1.42,0.33
		c2.44,3.22,5.71,5.57,8.66,8.25c7.44,6.77,11.8,15.02,12.28,25.16c0.35,7.35,0.6,14.7,1.02,22.04c0.17,3.02,0.57,6.03,1.03,9.02
		c0.31,1.99,1.49,3.47,3.29,4.48c1.81,1.02,3.58,2.12,5.32,3.25c5.74,3.76,10.31,8.58,13.15,14.9c1.13,2.52,1.96,5.11,1.43,7.9
		c-0.26,1.37,0.01,2.52,0.72,3.64c4.07,6.38,5.55,13.63,6.37,20.94c0.95,8.41,1.3,16.89,1.79,25.35c0.42,7.19,0.76,14.36,1.96,21.49
		c1.6,9.53,5.95,17.5,13.09,23.93c2.37,2.13,4.9,4.12,7.49,5.98c5.92,4.25,12.72,5.78,19.86,6.28c2.86,0.2,5.7,0.72,8.54,1.12
		c0.79,0.11,1.57,0.35,2.36,0.41c3.96,0.3,7.92,0.55,12.2,0.85c-0.24-0.65-0.35-1.24-0.64-1.7c-3.27-5.15-7.91-8.78-13.25-11.5
		c-3.41-1.74-6.93-3.33-10.55-4.57c-9.28-3.18-15.22-9.81-19.23-18.36c-3.03-6.45-4.57-13.28-3.74-20.51
		c0.22-1.89,0.21-3.8,0.35-6.64c0.71,1.33,1.18,1.86,1.28,2.46c0.29,1.73,0.47,3.48,0.62,5.24c0.37,4.52,1.59,8.75,3.62,12.83
		c2.69,5.4,6.6,9.79,10.91,13.87c2.11,2,4.7,3.29,7.39,4.37c3.56,1.43,7.13,2.85,10.6,4.48c7.08,3.34,13.05,8.05,17.22,14.81
		c2.52,4.08,4.96,8.21,7.5,12.28c4.93,7.93,11.51,14.08,19.98,18.11c4.83,2.3,9.84,3.63,15.27,3.47c3.14-0.09,5.96-0.87,8.67-2.37
		c1.95-1.07,4.02-1.92,6.01-2.94c1.12-0.57,2.35-1.11,3.24-1.96c8.28-7.91,18.24-12.22,29.42-13.98c0.31-0.05,0.6-0.21,1.12-0.41
		c-1.69-3.48-3.89-6.55-6.49-9.35c-0.76-0.82-1.69-1.48-2.43-2.31c-3.94-4.43-8.89-6.04-14.68-5.3c-2.53,0.32-5.12,0.47-7.57,1.12
		c-6.42,1.68-12.94,2.1-19.51,1.73c-5.66-0.32-11.01-1.87-16.03-4.53c-0.98-0.52-1.98-1.1-2.79-1.85
		c-4.45-4.19-8.45-8.74-11.16-14.29c-1-2.06-1-3.58-0.02-3.85c1.57-0.43,2.35,0.82,3.12,1.76c2.63,3.23,5.49,6.22,8.43,9.18
		c4.83,4.88,10.84,6.69,17.34,7.09c5.43,0.34,10.87-0.18,16.22-1.29c0.75-0.16,1.44-0.59,2.61-1.08c-1.21-0.65-2.03-1.09-2.85-1.52
		c-2.54-1.35-5.16-2.57-7.6-4.08c-5.59-3.46-8.42-8.59-8.64-15.15c-0.01-0.22,0.33-0.45,0.71-0.93c1.01,0.79,1.49,1.98,2.13,2.99
		c1.92,3.04,4.47,5.43,7.57,7.21c8.07,4.61,16.42,8.61,25.48,10.93c3.32,0.85,6.24,2.45,8.85,4.63c4.92,4.11,9.68,8.39,13.37,13.69
		c4.78,6.86,11.22,10.1,19.65,9.71c4.38-0.2,8.58-0.88,12.61-2.55c4.6-1.9,8.84-4.46,12.96-7.23c4.51-3.04,8.97-6.18,13.7-8.84
		c7.33-4.13,15.18-6.73,23.73-6.71c0.78,0,1.55-0.08,2.83-0.16c-0.53-0.79-0.75-1.34-1.16-1.69c-1.44-1.27-2.9-2.52-4.42-3.69
		c-7.18-5.53-14.93-6.08-22.78-1.43c-5.69,3.38-11.67,5.95-18.11,7.44c-6.01,1.39-12.12,1.2-18.13,0.4
		c-7.43-0.98-12.43-6.17-13.08-13.71c0.95-0.59,1.39,0.26,1.88,0.75c0.9,0.9,1.69,1.93,2.58,2.84c3.05,3.12,6.74,4.67,11.14,4.78
		c6.71,0.16,13.04-1.21,18.98-4.26c3.84-1.97,7.6-4.08,11.39-6.15c3.86-2.11,7.95-3.23,12.38-3.3c6.54-0.1,12.28,1.76,17.09,6.29
		c1.63,1.53,3.3,3.04,5.05,4.42c4.47,3.5,9.3,3.74,14.41,1.48c2.63-1.16,5.28-2.3,7.99-3.23c2.68-0.91,4.77-2.5,6.57-4.62
		c3.67-4.32,6.59-9.03,8.13-14.54c0.83-2.96,1.26-5.95,0.88-9.01c-0.66-5.23-1.32-10.47-2.01-15.7c-0.04-0.28-0.3-0.53-0.48-0.82
		c-1.13-0.46-1.7,0.5-2.39,1.03c-2.62,2.01-5.57,3.17-8.85,3.29c-3.35,0.12-6.71,0.11-10.06,0.07c-4.16-0.05-8.32-0.15-12.47-0.29
		c-3.22-0.11-5.95,1.03-8.33,3.1c-3.76,3.26-7.3,6.69-9.27,11.45c-0.72,1.75-1.8,3.41-2.97,4.91c-2.22,2.82-5.2,4.18-8.84,3.84
		c-2.1-0.2-3.35-1.4-4.1-3.43c6.08,0.03,8.72-1.61,10.76-7.49c1.96-5.64,5.49-10.06,9.68-14.08c3.75-3.6,8.11-5.55,13.44-5.21
		c4.47,0.29,8.95,0.36,13.42,0.48c1.6,0.04,3.2,0,4.8-0.08c4.3-0.2,8.07-1.76,11.43-4.42c2.61-2.07,4.46-4.44,4.52-8.03
		c0.04-2.04,0.67-4.09,1.13-6.11c1.21-5.29,4.31-9.19,8.87-12.02c1.36-0.84,2.71-1.71,4.06-2.55c3.93-2.46,6.63-5.95,8.59-10.09
		c1.21-2.54,1.72-5.2,0.76-7.91c-0.9-2.55-1.82-5.12-3.06-7.51c-2.28-4.39-4.98-8.58-6.39-13.39c-0.08-0.26-0.44-0.43-0.78-0.75
		c-2.65,1.97-4.02,4.76-5.11,7.79c-1.03,2.85-2.14,5.68-3.38,8.45c-1.32,2.94-3.17,5.55-5.57,7.74c-3.22,2.95-6.01,6.2-7.48,10.4
		c-0.08,0.23-0.48,0.36-0.91,0.65c-1.51-2.36-1.32-4.81-0.56-7.27c0.76-2.49,2.2-4.58,4-6.46c1.55-1.61,3.06-3.28,4.41-5.05
		c2.44-3.22,4.28-6.77,4.98-10.79c0.59-3.36,1.91-6.43,3.51-9.39c1.83-3.37,3.63-6.77,5.62-10.05c2.93-4.82,4.33-9.93,3.65-15.57
		c-0.59-4.93-1.15-9.85-3.66-14.3c-1.5-2.67-3.28-5.03-5.57-7.13c-6.84-6.27-11.99-13.61-14.41-22.78
		c-1.67-6.34-1.47-12.67-0.82-19.05c0.49-4.77,1.29-9.52,1.58-14.3c0.76-12.38,0.16-15.96-8.3-27.63
		c-4.68-6.46-11.35-9.02-19.34-8.18c-8.27,0.88-15.91,3.4-22.72,8.27c-1.43,1.02-3.02,1.8-4.51,2.73c-3.34,2.08-6.99,3.07-10.9,3.28
		c-1.52,0.08-3.14-0.26-5.1,0.76c0.89,0.56,1.33,0.98,1.84,1.13c6.14,1.86,12.25,2.1,18.31-0.43c2.51-1.04,5.03-2.07,7.6-2.93
		c3.85-1.28,7.83-1.51,11.85-1.01c6.14,0.78,10.89,3.75,13.56,9.41c2.47,5.24,3.71,10.78,3.14,16.51c-1.33,0.53-1.82-0.17-2.2-0.85
		c-2.06-3.6-4.1-7.23-6.11-10.86c-0.54-0.98-0.94-2.04-1.49-3.01c-1.6-2.81-4.04-4.58-7.19-5.12c-3.98-0.68-7.97-0.73-11.81,0.85
		c-2.07,0.85-4.12,1.77-6.22,2.54c-7.3,2.68-14.75,2.73-22.18,0.8c-6.29-1.64-10.94-5.8-14.94-10.73c-1.01-1.24-1.91-2.57-2.84-3.87
		c-2.14-2.97-5.09-4.24-8.69-4.2c-3.75,0.04-7.25,0.89-10.59,2.65c-5.58,2.94-10.67,6.52-14.82,11.27
		c-4.89,5.6-11.01,9.15-17.91,11.61c-2.41,0.86-4.78,1.82-7.15,2.78c-9.34,3.78-15.42,10.6-18.53,20.11
		c-0.39,1.19-0.72,2.5-0.66,3.73c0.27,5.65-0.63,11.16-1.7,16.66c-0.27,1.41-0.46,2.85-0.77,4.25c-0.93,4.19-0.64,8.12,1.29,12.11
		c1.65,3.43,2.55,7.23,3.82,10.85c0.63,1.81,1.21,3.66,2.05,5.37c1.17,2.38,2.93,4.12,5.72,4.37c0.26-0.41,0.6-0.71,0.55-0.91
		c-1.57-6.3-1.57-12.71-1.08-19.09c0.33-4.27-0.05-8.26-2-12.11c-0.64-1.27-0.95-2.71-1.36-4.08c-0.17-0.58-0.2-1.19-0.29-1.76
		c1.59-0.74,2.18,0.53,2.99,1.12c4.18,3.01,6.27,7.05,6.26,12.28c0,5.12,0.44,10.23,0.39,15.35c-0.06,6.52,2.13,11.86,7.33,15.91
		c1.13,0.88,2.22,1.88,3.06,3.03c2.5,3.42,6.04,5.16,9.89,6.4c3.34,1.08,6.76,1.94,10.1,3.03c1.65,0.54,3.38,1.14,4.78,2.13
		c3.3,2.32,6.8,2.44,10.68,1.6c2.1-3.46,5.13-5.88,8.72-7.87c5.39-2.98,5.84-5.96,2.12-10.85c-0.28-0.37-0.72-0.61-1.27-1.07
		c-2.43,3.38-5.78,5.44-9.66,6.68c-0.91,0.29-1.83,0.75-2.75,0.77c-8.87,0.17-17.24-1.31-23.94-7.8c-2.81-2.72-4.94-5.91-5.43-9.9
		c-0.37-3.01-0.82-6.05-0.74-9.06c0.12-4.45-0.84-8.58-2.73-12.52c-2.91-6.05-4-12.43-3.76-19.1c0.18-4.85,1.74-9.07,5.34-12.43
		c1.4-1.31,2.77-2.65,4.24-3.89c3.79-3.2,7.64-6.34,8.9-11.85c0.61,0.61,1.06,0.84,1.15,1.18c1.22,4.54-0.77,8.12-3.62,11.35
		c-1.9,2.16-3.93,4.21-5.99,6.23c-2.69,2.63-3.82,5.82-3.75,9.52c0.05,2.72-0.13,5.46,1,8.03c0.31,0.7,0.76,1.33,1.34,2.32
		c1.12-1.32,2.09-2.35,2.93-3.47c2.57-3.42,5.9-5.79,9.86-7.37c3.41-1.36,6.8-2.79,10.17-4.26c5.23-2.28,9.71-5.51,12.93-10.34
		c2.8-4.2,6.34-7.67,10.87-9.92c5.59-2.78,11.41-2.78,17.22-0.7c1.63,0.58,3.14,1.56,3.72,3.76c-1.88,0.49-3.56-0.07-5.18-0.23
		c-2.74-0.27-5.4-0.12-8.11,0.35c-6.59,1.13-10.75,5.15-13.53,10.92c-0.05,0.1,0.09,0.3,0.25,0.75c6.83,0.46,13.8,0.93,20.77,1.4
		c0.43,0.93-0.23,1.41-0.87,1.9c-5.61,4.29-11.9,6.05-18.92,5.14c-2.06-0.27-4.12-0.5-6.19-0.64c-1.96-0.13-3.76,0.31-5.44,1.47
		c-4.24,2.94-8.95,4.95-13.81,6.59c-4.21,1.42-7.71,3.82-10.47,7.3c-2.09,2.63-3.29,5.32-1.85,8.82c1.36,3.31,1.06,6.92,1.1,10.44
		c0.02,2.04-0.21,4.15,1.18,6.15c0.85-3.54,1.43-6.92,2.47-10.15c1.94-6.01,5.92-10.16,12.09-11.99c4.2-1.24,8.44-1.5,12.8-0.79
		c7.64,1.24,6.13,2.29,13.8-2.82c5.6-3.73,10.84-7.92,15.22-13.11c3.12-3.69,6.74-6.83,11.07-9.06c9.56-4.94,21.28-1.37,26.47,8.06
		c0.69,1.26,1.34,2.55,1.88,3.89c0.78,1.92,2.15,3.14,4.05,3.82c1.95,0.7,3.9,1.43,5.88,2.05c7.44,2.33,14.23,5.75,19.54,11.65
		c7.28,8.09,8.66,17.37,5.75,27.47c-1.39,0.34-1.73-0.39-2-1.16c-1.18-3.48-2.34-6.97-3.53-10.45c-1.25-3.67-3.09-7.02-5.47-10.08
		c-3.1-3.98-6.84-7.15-11.63-8.96c-2.52-0.95-4.88-2.35-7.92-2.74c-0.11,0.7-0.31,1.27-0.25,1.81c0.41,3.65,0.99,7.28,1.29,10.94
		c0.25,3.05,0.76,6.03,1.75,8.92c1.71,4.97,1.94,10.05,0.78,15.14c-1.16,5.12-0.67,10.18,0.12,15.26c0.33,2.15,1.47,3.85,2.89,5.42
		c1.18,1.3,2.39,2.58,3.49,3.95c0.35,0.43,0.37,1.12,0.57,1.77c-0.68,0.18-1.12,0.38-1.57,0.4c-7.79,0.4-16.9-8.1-15.81-17
		c0.47-3.8,1-7.62,1.96-11.32c1.12-4.3,1.47-8.45,0.06-12.74c-1.38-4.17-1.33-8.53-1.25-12.85c0.13-7.16-2.44-13.45-5.88-19.49
		c-1.63-2.87-4.04-4.9-6.94-6.44c-3.99-2.13-7.95-2.14-11.94-0.09c-2.73,1.4-5.2,3.16-7.31,5.38c-4.42,4.66-9.08,9.02-14.68,12.26
		c-0.34,0.2-0.52,0.7-1,1.38c2.69-0.45,5.04-0.85,7.38-1.24c1.58-0.26,3.15-0.54,4.74-0.75c6.79-0.89,11.79,1.99,15.44,7.52
		c1.59,2.41,2.49,5.12,3.33,7.91c1.8,6,1.66,11.94,0.4,17.97c-0.49,2.34-0.7,4.75-0.98,7.13c-0.33,2.77,0.38,5.28,1.48,7.87
		c2.54,5.99,6.33,10.96,10.84,15.6c3.44,3.54,6.37,7.58,9.42,11.48c2.65,3.38,4.15,7.18,3.59,11.6c-0.1,0.79-0.13,1.62,0,2.39
		c0.81,4.85-0.76,9.16-2.96,13.33c-1.72,3.25-3.47,6.49-5.31,9.67c-2.09,3.61-4.03,7.25-4.4,11.93c-0.81-0.58-1.43-0.82-1.71-1.27
		c-1.39-2.25-2.05-4.67-1.44-7.33c0.64-2.77,1.28-5.53,1.93-8.33c-0.83-0.7-1.49,0.05-2.09,0.37c-4.28,2.24-8.77,3.88-13.49,4.89
		c-1.09,0.24-2.17,0.55-3.24,0.88c-4.6,1.42-8.4,3.84-10.62,8.33c-1.06,2.15-2.25,4.23-3.45,6.31c-1.19,2.08-2.37,4.17-3.72,6.15
		c-2.39,3.51-5.52,6.18-9.45,7.88c-3.53,1.53-7.02,3.13-10.89,3.59c-1.03,0.12-2.09,0.02-3.82,0.02c0.8-1,1.08-1.55,1.53-1.87
		c2.75-1.93,5.52-3.83,8.3-5.71c5.3-3.58,9.19-8.34,12.02-14.06c1.42-2.86,3.1-5.58,4.63-8.39c2.67-4.92,6.96-7.9,12.07-9.69
		c3.91-1.38,7.97-2.33,11.96-3.47c3.22-0.92,6.42-1.74,9.26-3.77c4.32-3.09,5.84-7.45,6.26-12.38c0.09-1.06-0.18-2.27-0.64-3.25
		c-2-4.19-4.67-7.93-7.5-11.34c-1.49,0.13-1.36,1.1-1.61,1.78c-0.77,2.1-1.39,4.27-2.32,6.29c-2.22,4.84-5.71,8.49-10.71,10.49
		c-7.74,3.1-15.71,4.44-23.92,2.3c-2.29-0.6-4.03-0.31-5.64,1.31c-2.25,2.26-4.77,4.31-6.75,6.79
		c-6.87,8.63-13.98,17.09-20.03,26.35c-1.13,1.73-2.57,3.27-3.83,4.92c-4.51,5.86-10.74,8.97-17.65,10.87
		c-3.4,0.93-6.92,1.23-10.47,0.96c-4.16-0.32-7.82-1.67-10.5-5.02c-3.17-3.96-7.3-5.93-12.26-6.8c-5.66-1-11.11-0.91-16.5,1.21
		c-3.72,1.46-7.53,2.68-11.24,4.17c-7.67,3.08-15.32,2.54-23,0.11c-3.52-1.12-6.12-3.25-7.87-6.57c-1.57-2.99-2.85-6.07-3.79-9.31
		c-0.11-0.37,0.06-0.83,0.17-1.86c0.82,0.98,1.33,1.52,1.77,2.12c1.71,2.31,3.37,4.66,5.1,6.96c1.51,2.01,3.55,3.3,6.03,3.59
		c8.31,0.97,16.63,0.49,24.52-5.01c-7.33-4.38-12.92-9.87-12.39-19.13c1.14-0.67,1.56,0.2,2.02,0.74c0.83,0.97,1.52,2.06,2.35,3.03
		c1.45,1.7,2.92,3.39,4.46,5.01c2.51,2.64,5.58,4.25,9.24,4.58c4.44,0.4,8.76,1.56,13.3,1.44c3.31-0.09,6.68,0.62,9.97,1.23
		c5.05,0.95,9.36,3.47,12.54,7.45c2.33,2.92,5.05,3.45,8.47,3.1c4.75-0.49,9.01-2.1,12.85-4.87c1.27-0.92,2.68-1.77,3.15-3.45
		c-0.64-0.93-1.43-0.39-2.1-0.23c-6.37,1.56-12.79,1.09-19.04-0.27c-7.36-1.6-13.65-5.45-18.59-11.19
		c-4.95-5.75-10.73-10.5-16.88-14.87c-4.5-3.2-9.49-5.04-14.92-6.21c-11.66-2.52-23.5-2.65-35.29-3.46
		c-3.51-0.24-7.01-0.57-10.49-1.01c-3.22-0.41-6.14-1.67-8.8-3.57c-8.25-5.88-13.92-13.63-16.54-23.42
		c-1.16-4.31-1.86-8.75-2.64-13.16c-1.39-7.87-2.46-15.81-4.1-23.63c-1.19-5.64-3.53-11-6.63-15.86c-1.51-2.36-3.84-4.26-5.99-6.13
		c-2.05-1.78-4.38-3.22-6.53-4.87c-0.64-0.49-1.16-1.35-0.57-2.07c0.44-0.53,1.4-1.08,1.98-0.95c1.86,0.4,3.78,0.87,5.44,1.76
		c5.46,2.92,10.03,6.82,12.85,12.5c3.07,6.19,5.7,12.51,6.6,19.44c0.27,2.05,0.87,4.06,1.3,6.09c1.08,5.16,2.23,10.31,3.21,15.49
		c1.25,6.65,3.08,13.04,6.78,18.83c2.55,4,5.88,7.18,9.68,9.86c1.51,1.07,3.44,1.7,5.28,2.11c3.22,0.72,6.5,1.26,9.81,0.75
		c0.2-1.21-0.66-1.57-1.2-2.08c-6.43-6.07-9.93-13.52-11.15-22.26c-1.41-10.1-1.09-20.08,0.99-30.05c0.94-4.53,1.44-9.16,2.27-13.72
		c0.89-4.91,0.05-9.57-1.8-14.08c-1.96-4.77-4.72-9.05-8.26-12.85c-4.91-5.26-9.78-10.56-14.59-15.9c-2.59-2.88-4.6-6.21-5.88-9.84
		c-2.98-8.47-3.9-17.13-1.63-25.95c2.64-10.22,5.29-20.43,8.04-30.62c1.26-4.66,1.85-9.41,2.22-14.19c0.23-2.98-0.6-5.69-2.04-8.26
		c-1.25-2.22-2.19-4.54-2.47-7.22c5.12,1.27,8.52,4.6,9.43,9.15c0.25,1.25,0.36,2.54,0.41,3.81c0.32,8.03-0.33,15.91-2.57,23.73
		c-2.42,8.45-4.4,17.03-6.24,25.63c-1.46,6.84-0.63,13.7,1.16,20.4c0.73,2.74,2,4.38,4.29,6.38c-0.1-1.47-0.13-2.71-0.28-3.93
		c-0.56-4.38,0.04-8.61,1.48-12.75c2.51-7.17,5.96-13.82,11.31-19.3c4.35-4.46,8.8-8.84,13.32-13.14
		c3.85-3.66,7.26-7.65,10.04-12.18c2.04-3.32,3.45-6.87,3.75-10.77c0.27-3.51,0.46-7.02,0.57-10.54c0.16-5.29,0.64-10.52,1.95-15.68
		c1.57-6.17,4.54-11.57,8.54-16.47c1.61-1.98,3.07-4.08,4.56-6.16c4.02-5.62,5.19-11.9,4.46-18.68c-0.53-4.93-1.08-9.86-1.29-14.81
		c-0.28-6.5,1.01-12.73,4.31-18.44c1.03-1.79,2.16-3.5,4.62-4.78c-0.3,1.05-0.35,1.67-0.63,2.14c-4.24,7.08-5.04,14.71-3.79,22.7
		c0.97,6.18,1.41,12.39,0.85,18.65c-0.03,0.39,0.17,0.81,0.42,1.89c0.81-1.46,1.34-2.36,1.82-3.28c1.18-2.27,2.22-4.62,3.53-6.81
		c3.97-6.62,9.9-10.26,17.53-11.19c1.59-0.19,3.19-0.3,4.78-0.37c4.52-0.21,8.43-1.79,11.51-5.14c1.95-2.11,3.87-4.27,5.64-6.53
		c5.34-6.82,11.18-13.15,17.9-18.66c4.3-3.53,8.99-5.29,14.62-4.7c2.19,0.23,4.46-0.19,6.67-0.46c3.96-0.48,7.93-1,11.87-1.64
		c1.99-0.32,3.93-0.93,6.53-1.56c-1.85,2.35-3.72,3.34-5.98,3.7c-3.16,0.5-6.33,0.92-9.48,1.46c-3.15,0.53-6.28,1.16-9.42,1.75
		c-4.05,0.75-7.43,2.71-10.55,5.36c-6.51,5.53-11.96,11.98-17.05,18.79c-2,2.68-4.2,5.25-6.55,7.64c-3.45,3.52-7.64,5.75-12.64,6.24
		c-1.91,0.19-3.82,0.4-5.71,0.75c-5.59,1.03-10.23,3.62-13.26,8.59c-1.33,2.18-2.65,4.39-3.7,6.71c-2.94,6.51-6.97,12.2-12.24,17.01
		c-0.47,0.43-0.87,0.95-1.36,1.35c-6.1,4.93-8.71,11.7-9.98,19.12c-0.76,4.42-0.93,8.91-0.66,13.39c0.02,0.4,0.33,0.79,0.65,1.53
		c1.45-1.18,2.05-2.62,2.67-4.02c1.83-4.11,4.32-7.8,6.87-11.5c4.27-6.23,10.16-10.05,17.06-12.61c0.75-0.28,1.53-0.45,2.3-0.67
		c10.11-2.95,8.25-2.02,15.73-9.31c3.43-3.35,6.69-6.85,9.32-10.92c1.64-2.54,3.75-4.78,5.7-7.11c2.77-3.31,5.63-6.55,8.4-9.87
		c2.7-3.23,5.85-5.92,9.54-7.94c4.21-2.3,8.41-4.63,12.73-6.71c8.83-4.24,18.14-4.81,27.66-3.17c2.99,0.52,5.96,1.14,8.93,1.76
		c5.84,1.22,11.46,0.48,16.88-1.9c1.61-0.71,3.23-1.42,4.73-2.32c7.86-4.69,16.26-8.2,24.7-11.65c8.52-3.48,17.06-3.94,25.62-0.08
		c3.9,1.75,8.67,6.04,10.84,10.03c-0.76-0.06-1.41,0.03-1.93-0.19c-1.62-0.69-3.16-1.56-4.77-2.25c-9.29-4.02-18.62-4.32-27.85,0.09
		c-7.93,3.79-15.72,7.87-23.65,11.67c-3.58,1.71-7.35,3.04-11.26,4.63c1.15,1.85,3.08,3.05,4.88,4.08
		c6.57,3.74,13.45,6.69,21.19,6.97c3.72,0.13,7.33-0.34,10.87-1.49c5.63-1.83,11.24-3.68,16.91-5.39c3.36-1.02,6.8-1.77,10.2-2.67
		c1.08-0.28,2.19-0.53,3.19-1c6.87-3.32,14.32-4.46,21.72-5.72c2.99-0.51,6.03-0.75,9.05-0.96c6.07-0.41,11.68,1.31,17.17,3.72
		c6.9,3.04,14.32,4.47,21.49,6.67c4.64,0.05,9.27,0.13,13.91,0.13c1.76,0,3.51-0.22,5.27-0.23c6.56-0.05,12.17,2.15,16.77,6.95
		c4.12,4.29,7.99,8.74,10.5,14.2c0.2,0.43,0.36,0.88,0.5,1.34c0.03,0.1-0.12,0.26-0.19,0.41c-0.97,0.58-1.44-0.29-1.94-0.79
		c-3.86-3.86-8.01-7.33-12.6-10.31c-5.01-3.25-10.39-4.68-16.38-4.32c-4.78,0.29-9.59,0.15-14.39,0.2c-0.75,0.01-1.51,0-2.12,0
		c-0.52,1.13,0.15,1.51,0.6,1.87c3.12,2.54,6.46,4.73,10.22,6.18c7.45,2.86,12.5,7.99,15.49,15.41c2.05,5.07,5.14,9.56,8.95,13.54
		c4.22,4.42,9.16,7.43,15.29,8.31c3.95,0.57,7.9,1.18,11.85,1.78c1.23,0.19,2.53,0.27,3.6,1.77c-4.01,0.81-7.74,1.08-11.48,1.13
		c-2.55,0.03-5.12-0.02-7.66-0.26c-7.45-0.73-13.14-4.67-17.9-10.16c-2.85-3.28-5.04-7-6.93-10.91c-1.04-2.16-2.13-4.3-3.29-6.39
		c-1.61-2.89-3.94-5.01-7.05-6.22c-1.64-0.64-3.26-1.31-4.91-1.92c-5.96-2.19-11.16-5.51-15.35-10.33
		c-5.76-6.63-13.43-10.2-21.49-13c-1.92-0.67-4.08-0.8-6.14-0.88c-3.95-0.15-7.85,0.37-12.26,1.29c0.79,0.76,1.13,1.26,1.61,1.53
		c4.12,2.32,6.58,5.92,8.2,10.27c0.89,2.39,1.94,4.74,3.16,6.97c1.66,3.05,4.21,5.2,7.53,6.35c1.96,0.68,3.93,1.35,5.91,1.99
		c7.34,2.37,12.36,7.16,14.98,14.41c1.14,3.16,2.1,6.38,3.23,9.54c0.53,1.49,1.04,3.07,1.93,4.34c5.22,7.47,10.51,14.91,16.95,21.43
		c4.78,4.84,10.06,8.84,16.6,11.07c3.06,1.04,6.1,1.77,9.35,1.84c6.59,0.15,13.09-0.47,19.54-1.81c3.94-0.82,7.69-2.1,11.29-3.92
		c9.01-4.57,18.33-8.39,28.08-11.04c4.62-1.25,9.36-2.08,14.06-3c1.07-0.21,2.26-0.16,3.33,0.08c5.31,1.19,9.96,3.47,12.92,8.32
		c0.23,0.37,0.29,0.84,0.43,1.25c-1.02,0.74-1.57-0.1-2.09-0.56c-4.76-4.2-10.28-5.01-16.16-3.34c-5.22,1.48-10.38,3.23-15.5,5.04
		c-8.45,2.99-16.67,6.52-24.6,10.73c-4.99,2.65-10.44,3.98-16.03,4.71c-1.03,0.13-2.04,0.31-4.23,0.65
		c2.12,0.75,3.11,1.17,4.13,1.45c3.39,0.94,6.76,1.95,10.19,2.71c9.81,2.19,19.53,4.39,29.83,3.58c10.86-0.86,21.64-2.12,32.4-3.69
		c0.63-0.09,1.26-0.22,1.9-0.3c5.72-0.72,11.21-0.12,16.15,3.07c4.29,2.77,8.54,5.63,12.69,8.61c3.24,2.33,6.29,4.92,9.41,7.41
		c0.73,0.58,1.4,1.25,2.79,2.52c-1.57-0.29-2.29-0.31-2.91-0.56c-7.26-2.94-14.5-5.93-21.19-10.08c-1.22-0.76-2.56-1.33-3.77-2.1
		c-4.34-2.72-9.02-2.89-13.88-2.04c-5.51,0.97-11,2.02-16.54,2.82c-3.31,0.48-6.68,0.55-10.42,0.84c0.36,0.61,0.53,1.19,0.92,1.5
		c3.32,2.6,5.88,5.87,8.29,9.26c1.39,1.95,2.79,3.91,4.04,5.96c1.95,3.18,4.16,6.05,7.47,7.95c0.48,0.27,0.76,0.89,1.38,1.66
		c-4.8,0.04-8.56-1.35-11.61-4.44c-1.79-1.82-3.41-3.81-5.07-5.76c-0.72-0.85-1.37-1.77-2.01-2.69c-4.24-6.03-9.86-9.94-17.19-11.25
		c-6.29-1.12-12.65-1.98-18.85-3.46c-12.57-3-25.32-5.42-37.11-11.13c-11.84-5.73-22.29-13.14-30.41-23.62
		c-0.49-0.63-1.07-1.19-1.62-1.76c-0.09-0.1-0.27-0.11-0.49-0.19c-1.07,0.35-0.65,1.28-0.55,1.94c0.34,2.21,0.73,4.42,1.25,6.6
		c1.25,5.29,2.52,10.58,3.92,15.83c0.66,2.46,1.54,4.88,2.51,7.24c1.66,3.99,3.48,7.9,5.22,11.86c1.64,3.73,3.92,6.94,7.23,9.4
		c11.79,8.74,24.17,16.32,38.92,18.83c5.17,0.88,10.49,1.03,15.75,1.31c4.63,0.25,9.28,0.16,13.91,0.36
		c7.08,0.3,13.95,1.71,20.57,4.29c0.45,0.17,0.92,0.28,1.36,0.48c7.65,3.48,15.61,4.48,23.9,3.08c1.56-0.26,3.19-0.23,4.79-0.22
		c3.96,0.02,7.59,1.08,10.67,3.65c1.84,1.54,3.71,3.06,5.4,4.75c4.15,4.17,9.32,5.98,14.95,6.98c5.15,0.92,10.2,0.11,15.26-0.6
		c3.8-0.53,7.56-1.3,11.36-1.87c3.82-0.58,7.65-0.62,11.45,0.23c7.72,1.74,11.97,6.33,12.84,14.13c0.35,3.17,0.44,6.39,0.44,9.58
		c0,5.14,1.66,9.36,6.04,12.36c3.39,2.32,5.81,5.55,7.58,9.16c2.66,5.43,6.96,8.51,12.64,10.19c4.17,1.23,8.38,2.01,12.68,2.51
		c3.49,0.41,6.95,1.06,10.4,1.68c4.1,0.74,7.52,2.77,10.02,6.09c2.31,3.08,5.44,4.74,8.85,6.29c5.23,2.38,10.58,3.39,16.29,3.08
		c6.97-0.37,12.4,2.51,16.26,8.33c0.62,0.93,1.25,1.86,1.85,2.81c3.02,4.83,6.77,8.9,11.84,11.65c0.79,0.43,1.85,0.65,2.01,2.15
		c-4.03-0.17-7.81-0.81-11.2-3.13c-3.47-2.38-6.39-5.31-8.9-8.67c-0.77-1.03-1.47-2.09-2.24-3.12c-1.9-2.55-4.44-4.17-7.56-4.68
		c-2.47-0.4-4.97-0.96-7.75-0.23c0.27,0.91,0.48,1.66,0.71,2.39c0.68,2.13,1.57,4.22,2.01,6.39c1.54,7.65,5.1,14.47,8.68,21.24
		c2.23,4.21,5.66,7.1,10.64,8.2c5.6,1.24,11.11,2.98,16.6,4.68c3.39,1.05,4.16,2.04,6.01,6.35c-0.54-0.31-1.01-0.42-1.22-0.72
		c-2.06-3.05-5.19-4.04-8.58-4.66c-4.72-0.87-9.38-2.02-14.12-2.72c-6.93-1.03-11.52-5.24-15.21-10.7c-4.07-6-7.17-12.45-8.58-19.65
		c-0.49-2.5-1.29-4.96-2.21-7.33c-1.15-2.96-3.25-5.09-6.37-6.09c-1.37-0.44-2.7-1-4.05-1.5c-2.91-1.09-5.47-2.8-7.42-5.14
		c-3.02-3.62-6.96-4.83-11.39-5.29c-3.81-0.39-7.62-0.9-11.41-1.53c-4.79-0.8-9.11-2.91-13.41-5.06c-0.7-0.35-1.41-0.66-1.99-0.93
		c-1.18,0.6-0.79,1.46-0.79,2.18c0.05,5.8,1.05,11.45,2.79,16.98c1.07,3.41,2.62,6.54,5.21,9.05c4.4,4.25,6.89,9.56,8.53,15.33
		c0.83,2.92,1.6,5.86,2.39,8.79c1.57,5.84,4.81,10.35,10.16,13.34c3.07,1.71,5.95,3.77,9.02,5.48c5.83,3.24,10.39,7.93,14.94,12.67
		c2.21,2.3,4.56,4.48,6.96,6.58c3.62,3.16,7.97,4.73,12.71,5.07c3.98,0.29,7.98,0.37,11.97,0.43c3.88,0.06,7.62-0.84,11.29-2.01
		c6.57-2.1,13.27-3.56,20.1-4.49c3.52-0.48,6.97-0.76,10.44,0.4c3.35,1.11,6.65,0.84,9.68-1.09c5.4-3.42,10.8-6.85,16.16-10.33
		C1089.62,350.53,1090.95,349.37,1092.55,348.14z"/>
</g>
</svg>
